<?xml version="1.0" encoding="UTF-8" standalone="no"?>
<!-- Created with Inkscape (http://www.inkscape.org/) -->

<svg
   width="59.416267mm"
   height="59.433208mm"
   viewBox="0 0 59.416267 59.433208"
   version="1.1"
   id="svg1"
   xml:space="preserve"
   sodipodi:docname="program_logo.svg"
   inkscape:version="1.3.2 (091e20e, 2023-11-25, custom)"
   inkscape:export-filename="program_logo.png"
   inkscape:export-xdpi="96"
   inkscape:export-ydpi="96"
   xmlns:inkscape="http://www.inkscape.org/namespaces/inkscape"
   xmlns:sodipodi="http://sodipodi.sourceforge.net/DTD/sodipodi-0.dtd"
   xmlns="http://www.w3.org/2000/svg"
   xmlns:svg="http://www.w3.org/2000/svg"><sodipodi:namedview
     id="namedview1"
     pagecolor="#ffffff"
     bordercolor="#000000"
     borderopacity="0.25"
     inkscape:showpageshadow="2"
     inkscape:pageopacity="0.0"
     inkscape:pagecheckerboard="0"
     inkscape:deskcolor="#d1d1d1"
     inkscape:document-units="mm"
     inkscape:zoom="0.30573795"
     inkscape:cx="-27.801586"
     inkscape:cy="-959.97242"
     inkscape:window-width="1920"
     inkscape:window-height="1009"
     inkscape:window-x="1912"
     inkscape:window-y="-8"
     inkscape:window-maximized="1"
     inkscape:current-layer="layer1" /><defs
     id="defs1" /><g
     inkscape:label="Layer 1"
     inkscape:groupmode="layer"
     id="layer1"
     transform="translate(-87.640825,-62.300192)"><path
       id="path1"
       style="fill:#ffffff;fill-opacity:1"
       d="m 16.505859,-325.45508 c -2.464452,0.71366 -4.401492,2.49434 -6.5082671,3.87114 -2.5873179,1.92781 -5.2364631,4.16461 -6.3665632,7.28606 -0.5178305,1.73822 -0.4305146,3.46382 -0.4630599,5.27444 -11.2061163,-0.10095 -22.4127018,-0.1226 -33.6191408,-0.16406 0.03992,-3.04688 -0.184468,-6.26792 -1.724609,-9.01172 -2.605482,-4.60016 -8.137562,-7.31718 -13.321247,-6.62455 -4.958469,0.6554 -9.467001,4.30219 -10.8643,9.14799 -0.616781,2.20933 -0.449229,4.44315 -0.59961,6.74219 -13.283752,1.29491 -26.319789,6.96159 -35.970462,16.3347 -9.80752,9.44595 -16.44609,22.33632 -17.90454,35.92897 -0.44094,4.61936 -0.23769,9.29828 -0.3231,13.96198 -0.19234,35.16711 -0.1687,70.33496 -0.20031,105.50247 0.0183,11.99804 0.0175,23.99746 0.22136,35.99388 0.3256,11.502321 4.4358,22.806128 11.167736,32.134979 3.812187,5.297013 8.556444,10.048449 13.912205,13.795678 9.691883,6.82675 21.501993,10.684909 33.322738,10.833667 4.586338,0.03946 9.172948,-0.03526 13.759516,0.01784 39.20609065,0.122322 78.414276,0.183942 117.618804,-0.195686 7.84591,-0.380011 15.663154,-2.72504 22.682391,-6.329323 12.14003,-6.14998 22.0682,-16.640935 27.50564,-29.174576 2.46163,-5.542738 4.08674,-11.57041 4.53029,-17.568253 0.25179,-4.008396 0.15793,-8.028576 0.24424,-12.042526 0.12846,-16.56058 0.0646,-33.12194 0.0935,-49.68287 8.4e-4,-30.67683 0.0208,-61.35414 -0.16973,-92.03046 -0.0617,-4.00489 -0.30762,-7.99426 -1.31605,-11.85882 -2.64377,-11.10666 -8.55491,-21.50568 -16.89777,-29.40147 -6.34543,-6.05563 -14.04865,-10.68029 -22.383839,-13.4155 -0.965732,-0.93396 -0.491279,-2.34042 -0.631722,-3.5148 -0.0068,-3.3489 -0.344409,-6.94826 -2.476006,-9.68652 -1.465674,-2.03877 -3.587456,-3.65213 -5.802429,-4.56821 -3.299047,-1.43622 -7.134207,-1.32239 -10.427254,0.15192 -3.760578,1.65161 -6.904297,5.24032 -7.464985,9.44459 -0.287225,1.68984 -0.224568,3.4115 -0.283542,5.11834 -12.075521,-0.005 -24.151041,-0.011 -36.226562,-0.0156 0.01495,-3.0695 -0.0975,-6.3047 -1.638139,-9.07936 -2.028007,-3.4802 -5.703221,-5.8951 -9.666549,-6.53001 -0.43654,-0.53331 -1.112061,-0.93573 -1.808594,-0.64649 z m -14.8769528,42.84766 c 0.2495772,3.71327 2.1112725,7.0642 4.1307717,10.09723 2.9429608,4.00027 8.2224751,6.17265 13.1194071,5.1808 2.199093,-0.40174 4.543172,-1.50954 6.304746,-3.07367 2.989748,-2.5649 4.602239,-6.5148 4.388435,-10.43874 0.159028,-1.34349 1.729466,-1.91401 2.90664,-1.63283 l 33.36875,-0.006 c -0.04487,2.40184 0.06805,4.6544 0.866858,6.9414 0.846073,2.36457 2.535896,4.38044 4.534275,5.87001 2.601757,1.8665 5.73894,2.77692 8.929192,2.52832 1.951236,-0.1498 3.884966,-0.83398 5.491244,-1.77324 2.919088,-1.69996 5.134409,-4.53416 6.162806,-7.73446 0.4639,-0.68087 1.278659,-0.11938 1.703125,0.3086 8.052924,5.81501 13.439364,15.38223 13.671364,25.37306 0.10404,2.51607 0.0798,5.03635 0.23098,7.55076 -30.630954,-0.0589 -61.261975,0.0139 -91.892967,0.003 -33.407423,0.0194 -66.814845,-7e-5 -100.222267,-0.009 -0.0114,-6.02411 -0.229532,-12.28846 2.116733,-17.96637 3.540376,-9.18289 11.355046,-16.6252 20.754781,-19.58842 1.595992,-0.52409 3.235803,-0.89608 4.870673,-1.27528 -0.105136,3.65911 0.487127,7.66381 3.092832,10.43206 1.799156,2.17884 4.576447,3.79916 7.341498,4.38008 4.486598,1.07747 9.427193,-0.54746 12.496003,-3.96714 2.23788,-2.42002 3.521301,-5.58462 3.492549,-8.88715 0.03871,-0.76557 0.06208,-1.53178 0.09274,-2.2977 10.682943,-0.005 21.3658854,-0.011 32.0488282,-0.0156 z m -85.7949222,65.88086 H 107.39844 c -0.05,39.00325 -0.10325,78.00651 -0.1543,117.009763 -1.47508,7.451754 -4.81886,14.783529 -10.583984,19.884766 -5.969482,5.578517 -14.094583,8.950582 -22.310135,8.677895 -21.125202,0.204194 -42.251855,0.131004 -63.377755,0.150097 -22.092229,-0.02438 -44.185633,-0.06724 -66.276954,-0.161977 -7.98601,-0.982405 -15.72151,-4.718803 -21.02539,-10.83789 -4.00472,-4.52973 -6.910745,-10.135183 -7.863281,-16.132813 -0.365522,-3.284101 -0.192264,-6.596991 -0.370467,-9.892361 -0.277043,-12.39045 -0.06824,-24.78463 -0.135199,-37.17678 0.0012,-23.84023 0.0025,-47.68047 0.0037,-71.5207 h 0.529296 z m 46.047657,27.7832 c -0.0039,11.55339 -0.0078,23.10677 -0.01172,34.66016 h 34.6621093 v -34.80664 c -11.5501303,0.0488 -23.1002603,0.0977 -34.6503893,0.14648 z m 68.780468,34.66016 H 65.3125 c 0.0944,-11.54558 0.188802,-23.09115 0.283203,-34.63672 -11.654297,-0.0143 -23.308594,-0.0286 -34.962891,-0.043 0.0098,11.5599 0.01953,23.11979 0.0293,34.67969 z m -68.807812,57.414059 H -3.4523437 L -3.6125,-131.66406 h -34.373047 c -0.05338,11.5983 -0.106771,23.19661 -0.160156,34.794919 z m 68.889844,-17.128909 c 0.0088,5.71227 -0.0018,11.42471 0.0625,17.136722 l 34.533203,-0.0078 c -0.05339,-11.598312 -0.106771,-23.196622 -0.160156,-34.794922 H 30.806641 c -0.02083,5.88867 -0.04167,11.77734 -0.0625,17.66601 z"
       sodipodi:nodetypes="sccccccccccccccccccccccccccccccccccccssscccccccccccccccccccccccccscccccccccccccccccccccccsccccccsccccss" /><g
       id="g2"
       inkscape:export-filename="program_logo.png"
       inkscape:export-xdpi="96"
       inkscape:export-ydpi="96"
       transform="matrix(2.4629218,0,0,2.4629218,-448.63864,-139.62689)"><rect
         style="fill:#12332e;stroke-width:1;stroke-miterlimit:3"
         id="rect2"
         width="119.20782"
         height="115.74625"
         x="315.62027"
         y="-32.528038" /><path
         style="fill:#fdefd4;fill-opacity:1;stroke:none"
         d="m 331.41541,-47.258039 c 8.14381,-0.974036 16.92938,-0.07554 25.13542,-0.07554 h 50.53541 c 12.75743,0 24.92986,1.542477 33.3671,12.435416 9.23752,11.926129 7.37874,26.8348619 7.37874,41.0104119 0,9.3349001 -0.0449,18.6899601 2.1e-4,28.0458401 0.0873,18.10987 4.38164,40.31841 -9.83471,54.45904 -2.29398,2.28177 -5.3056,4.15746 -8.15717,5.65934 -3.30296,1.73966 -7.42216,3.03047 -11.1125,3.57433 -5.35814,0.78966 -10.99374,0.33645 -16.40417,0.33645 h -28.57499 -27.51667 c -4.66325,0 -9.65008,0.55072 -14.2875,-0.1133 -9.0903,-1.30167 -17.95652,-6.08209 -23.27374,-13.64504 -8.10501,-11.52817 -6.62417,-25.52479 -6.62417,-38.89374 V 25.162249 1.3497489 c 0,-15.0332669 -0.97317,-31.8522489 12.7,-41.8441779 2.07685,-1.517704 4.24014,-3.05616 6.61458,-4.080015 3.18219,-1.372155 6.61624,-2.272407 10.05416,-2.68359 m 39.95209,16.705489 c -9.77806,1.287663 -19.13433,3.989178 -27.25209,9.790406 -6.83485,4.884424 -12.4398,10.8145519 -16.60832,18.1431379 -10.96968,19.2856101 -6.9034,46.4488101 8.94582,61.8888201 12.60058,12.27522 29.17025,17.84572 46.55625,15.55958 7.44033,-0.97836 15.03561,-4.00692 21.16667,-8.31826 13.87,-9.75327 23.65206,-25.47915 24.0732,-42.6718 0.61991,-25.3067601 -18.0747,-48.37431 -42.85862,-53.340091 -4.51783,-0.90521 -9.41204,-1.658992 -14.02291,-1.051793 m -1.85209,3.667427 c 28.17212,-3.325927 55.54167,20.3298769 55.54167,48.872367 0,16.99612 -9.08144,31.69692 -22.46875,41.63757 -6.09934,4.52902 -13.64042,7.21794 -21.16667,8.05999 -21.33021,2.38648 -42.82752,-8.55193 -52.15231,-28.26631 -3.21834,-6.80419 -3.99116,-13.54436 -4.4922,-20.90208 -0.44863,-6.58807 0.97568,-13.5025201 3.57637,-19.5791701 4.06951,-9.50862 11.30595,-16.7100859 19.73064,-22.4381279 6.27937,-4.26941 13.96699,-6.503026 21.43125,-7.384239 m 1.05834,3.741115 c -17.98892,2.448817 -34.2275,13.5777559 -39.90063,31.3729219 -3.18687,9.9963901 -2.81199,21.4993601 1.12672,31.2208301 7.202,17.77584 27.58596,31.08302 46.97599,28.76404 21.03615,-2.51584 39.91741,-19.16777 42.02384,-40.93487 2.65715,-27.4580901 -21.90847,-54.277741 -50.22592,-50.422922 m 47.09583,43.808342 h -9.525 c -1.16355,0.002 -2.90065,0.0421 -3.05169,1.58851 -0.14083,1.44199 1.42532,1.82924 2.52252,1.84984 3.34879,0.0629 6.70471,10e-4 10.05417,10e-4 -0.004,5.73324 -1.61434,11.3086 -4.16801,16.40417 -6.53969,13.04923 -18.76239,22.46791 -33.40282,24.26593 -23.89495,2.93454 -48.15417,-16.44619 -48.15417,-40.93468 2.99776,0.0619 5.98218,0.26478 8.99583,0.26458 1.19169,-8e-5 2.72569,0.21176 3.35037,-1.07385 0.60203,-1.23899 -0.54483,-2.41872 -1.76287,-2.52498 -3.31761,-0.28942 -7.27699,0.006 -10.58333,0.42383 0,-5.80384 1.02789,-11.1688401 3.63884,-16.4041601 6.81022,-13.655532 19.99778,-22.8388529 35.25491,-24.2967589 23.01457,-2.199171 46.76546,16.5905089 46.83125,40.436339 m -43.88164,-37.563262 c -1.49857,0.884377 -1.21143,6.9743149 -0.59654,8.4437989 0.41566,0.993368 1.8852,1.456838 2.80264,0.801918 0.70729,-0.50489 0.65464,-1.607101 0.6641,-2.3738989 0.0206,-1.670715 0.84196,-9.06256 -2.8702,-6.871818 m -18.84849,5.546657 c -4.8148,-0.05828 0.80915,6.6172599 1.66895,7.9395299 0.46044,0.70812 1.06782,1.82906 2.06951,1.72898 4.58607,-0.4582 -0.73022,-6.42974 -1.68815,-7.813972 -0.47817,-0.6909789 -1.08183,-1.8428139 -2.05031,-1.8545379 m 38.94151,0.285609 c -1.74674,0.833622 -4.39613,5.0081609 -4.87417,6.8603809 -0.31949,1.23794 0.79474,2.72075 2.15565,2.2165 1.59131,-0.58961 4.78551,-5.61936 5.24187,-7.242561 0.36619,-1.3025209 -1.40131,-2.3698169 -2.52335,-1.8343199 m -20.66138,27.762471 c -6.36525,0.95832 -5.97938,10.65093 0,12.03079 3.19388,0.73705 6.3282,-1.57799 7.16274,-4.62246 0.30812,-1.12403 -0.13583,-2.67027 0.45017,-3.65926 1.95286,-3.29587 6.43605,-6.68593 9.32042,-9.22978 1.5007,-1.3235301 6.24205,-4.2420901 4.9787,-6.6785001 -1.44639,-2.78941 -3.96111,0.0296 -5.24328,1.31129 -2.87263,2.87151 -5.79091,5.6704101 -8.73125,8.4666701 -0.81476,0.77482 -2.36136,2.68956 -3.66497,2.19058 -1.37104,-0.52479 -0.83295,-3.42702 -0.83295,-4.57183 V 2.9372439 c 0,-1.22113 0.33154,-3.04275 -0.1964,-4.1729 -0.82975,-1.7762 -3.09309,-0.53703 -3.22766,0.99811 -0.48671,5.5522 -0.0155,11.3575301 -0.0155,16.9331301 M 341.205,1.3497439 c -1.76343,3.48908 0.85651,4.64334 3.70416,6.2759 0.82452,0.47269 2.13122,1.66688 3.14724,1.44254 2.82602,-0.62397 0.34083,-3.39435 -0.76599,-4.09879 -0.80475,-0.51221 -1.59531,-1.03717 -2.38125,-1.5777 -1.17447,-0.80775 -2.38855,-1.49405 -3.70416,-2.04195 m 66.14562,0.48957 c -1.72977,0.30916 -6.17887,3.24021 -7.20029,4.67451 -0.76032,1.06765 0.41283,2.73426 1.64526,2.62358 1.82233,-0.16367 6.47598,-3.19761 7.44774,-4.73557 0.70178,-1.11067 -0.68587,-2.7782 -1.89271,-2.56252 m -33.0725,18.2197101 c 2.59862,-0.67131 3.63124,3.98795 1.03342,4.72288 -3.18253,0.90035 -4.11932,-3.92569 -1.03342,-4.72288 m -26.72414,15.6541 c -1.65323,0.1975 -5.95367,2.79351 -6.98207,4.1043 -0.79597,1.01454 0.0631,3.15407 1.43092,3.13866 1.54562,-0.0174 6.1015,-3.59779 6.97593,-4.87806 0.71168,-1.04197 -0.1514,-2.51703 -1.42478,-2.3649 m 53.74021,0.3093 c -3.46901,1.80373 3.48496,5.34255 4.73372,6.16687 0.66824,0.4411 1.67802,1.40379 2.54253,0.94196 0.87997,-0.47008 1.32238,-1.99206 0.73332,-2.80078 -0.93344,-1.28153 -6.49687,-5.09459 -8.00957,-4.30805 m -43.13218,11.05982 c -1.70006,0.52039 -4.47244,5.02577 -5.04423,6.65479 -0.434,1.23647 0.7517,2.63342 2.08543,2.20731 1.64537,-0.52565 4.45959,-5.10006 5.01463,-6.70481 0.42,-1.21431 -0.77476,-2.54944 -2.05583,-2.15729 m 32.78179,0.0316 c -1.32697,-0.0421 -1.97197,1.25927 -1.58218,2.39003 0.51058,1.48118 3.56196,6.99883 5.29308,6.88692 0.96068,-0.0621 2.09472,-1.119 1.87822,-2.12463 -0.3314,-1.53923 -3.91176,-7.09913 -5.58912,-7.15232 m -16.40008,4.70433 c -2.70045,0.47683 -1.32708,5.11648 -1.32414,6.94612 10e-4,0.83587 -0.2178,2.09241 0.27193,2.82631 0.38334,0.57445 1.19645,0.6677 1.82922,0.57285 1.14274,-0.17129 1.24695,-1.3799 1.31476,-2.34083 0.1324,-1.87612 1.0743,-8.56349 -2.09177,-8.00445"
         id="path2"
         sodipodi:nodetypes="cssssssssscscsscsssccsssssssccsssssssccsssscccsscsscssscssccsssccsssccsssccssssssssssssccssssccsssccsccsssccsssccsssccssscccsssc" /></g></g></svg>
